<?xml version="1.0" encoding="windows-1252"?>
<!-- Generator: Adobe Illustrator 19.0.0, SVG Export Plug-In . SVG Version: 6.00 Build 0)  -->
<svg version="1.1" id="Capa_1" xmlns="http://www.w3.org/2000/svg" xmlns:xlink="http://www.w3.org/1999/xlink" x="0px" y="0px" viewBox="0 0 459.755 459.755" style="enable-background:new 0 0 459.755 459.755;" xml:space="preserve">
<g>
	<path style="fill:#D4E1F4;" d="M444.082,278.204v95.086c0,5.747-4.702,10.449-10.449,10.449H330.188v-0.522V278.204H444.082z"/>
	<rect x="330.188" y="181.029" style="fill:#D4E1F4;" width="113.894" height="97.176"/>
	<path style="fill:#D4E1F4;" d="M444.082,86.465v94.563H330.188V76.016h103.445C439.38,76.016,444.082,80.718,444.082,86.465z"/>
</g>
<polygon style="fill:#00BBD3;" points="330.188,383.216 330.188,383.739 129.567,383.739 129.567,383.216 129.567,278.204   129.567,181.029 129.567,76.016 330.188,76.016 330.188,181.029 330.188,278.204 "/>
<g>
	<path style="fill:#D4E1F4;" d="M129.567,383.216L129.567,383.216l-103.445,0.522c-5.747,0-10.449-4.702-10.449-10.449v-95.086   h113.894V383.216z"/>
	<rect x="15.673" y="181.029" style="fill:#D4E1F4;" width="113.894" height="97.176"/>
	<path style="fill:#D4E1F4;" d="M129.567,76.016v105.012H15.673V86.465c0-5.747,4.702-10.449,10.449-10.449H129.567z"/>
</g>
<path style="fill:#3A2C51;" d="M433.633,60.343H26.122C11.494,60.343,0,71.837,0,86.465V373.29  c0,14.629,11.494,26.122,26.122,26.122h407.51c14.629,0,26.122-11.494,26.122-26.122V86.465  C459.755,71.837,448.261,60.343,433.633,60.343z M428.408,165.355h-82.547V91.69h82.547V165.355z M113.894,262.531H31.347v-65.829  h82.547V262.531z M145.241,91.69h169.273v276.376H145.241V91.69z M345.861,196.702h82.547v65.829h-82.547V196.702z M113.894,91.69  v73.665H31.347V91.69H113.894z M31.347,293.878h82.547v74.188H31.347V293.878z M345.861,368.065v-74.188h82.547v74.188H345.861z"/>
<g>
</g>
<g>
</g>
<g>
</g>
<g>
</g>
<g>
</g>
<g>
</g>
<g>
</g>
<g>
</g>
<g>
</g>
<g>
</g>
<g>
</g>
<g>
</g>
<g>
</g>
<g>
</g>
<g>
</g>
</svg>